# xmcd CD database file
#
# Track frame offsets:
#	150
#	32149
#	57841
#	88289
#	110324
#	135355
#	158306
#	177814
#	201685
#	223668
#	255446
#	278230
#	312897
#
# Disc length: 4501 seconds
#
# Revision: 0
# Processed by: cddbd v1.5.1PL0 Copyright (c) Steve Scherf et al.
# Submitted via: CDex 1.51
#
DISCID=b211930d
DTITLE=Tumbao Y Tumbao - Mezclando Culturas
DYEAR=2004
DGENRE=Salsa
TTITLE0=Mezclando Culturas
TTITLE1=Paris Tiene Su Salsa
TTITLE2=De Ibiza A Cuba
TTITLE3=Locua
TTITLE4=Comme Un Avion Sans Ailes
TTITLE5=Timba Con Son
TTITLE6=Negon
TTITLE7=La Foule
TTITLE8=Levantate
TTITLE9=Yamumba
TTITLE10=Juana
TTITLE11=La Descarga de Dani
TTITLE12=A Mi Madre - No Te Empeñes
EXTD=YEAR: 2004
EXTT0=
EXTT1=
EXTT2=
EXTT3=
EXTT4=
EXTT5=
EXTT6=
EXTT7=
EXTT8=
EXTT9=
EXTT10=
EXTT11=
EXTT12=
PLAYORDER=
